#!OML:ASF Y:\EmotionMaleHayes\Project 1\Capture day 1\Session 1\Male1.ASF
:FULLY-SPECIFIED
:DEGREES
156
root -28.8928 17.2168 -0.498128 35.6306 85.562 33.6515
lowerback 5.74583 1.81958 -4.58759
upperback 0.457684 2.12512 -0.777107
thorax -2.88639 1.11812 1.59429
lowerneck -23.2995 2.64419 3.29977
upperneck 25.8902 3.07794 -1.07341
head 12.5438 1.62884 -0.408691
rclavicle -6.08778e-016 2.38542e-015
rhumerus -35.2115 5.06635 -88.6448
rradius 33.0484
rwrist 1.05303
rhand -11.7262 -30.5745
rfingers 7.12502
rthumb 14.3209 -60.0606
lclavicle -6.08778e-016 2.38542e-015
lhumerus -29.9919 -11.6662 91.9472
lradius 24.5978
lwrist -16.8318
lhand -13.3109 -27.4175
lfingers 7.12502
lthumb 12.7935 2.17049
rfemur 10.0599 -4.25133 11.4263
rtibia 0.927395
rfoot -16.1483 -10.2527
rtoes 10.7696
lfemur 11.602 -0.891756 -15.0497
ltibia -1.74914
lfoot -14.372 18.3663
ltoes -5.37632
157
root -28.9023 17.2136 -0.50533 30.9769 85.0258 28.7964
lowerback 5.53412 2.01319 -4.51918
upperback 0.443902 2.39793 -0.778474
thorax -2.79629 1.25121 1.53803
lowerneck -23.3443 2.65663 3.30989
upperneck 25.8564 3.10599 -1.1349
head 12.5412 1.63237 -0.428782
rclavicle -7.4917e-015 -5.86415e-015
rhumerus -35.132 5.17434 -88.6639
rradius 33.059
rwrist 1.09769
rhand -11.8721 -30.4908
rfingers 7.12502
rthumb 14.1803 -59.9869
lclavicle -7.4917e-015 -5.86415e-015
lhumerus -29.9397 -11.7616 91.9882
lradius 24.663
lwrist -16.8396
lhand -13.4477 -27.2925
lfingers 7.12502
lthumb 12.6616 2.30369
rfemur 9.39046 -4.41714 11.3341
rtibia 1.49445
rfoot -16.0772 -9.41607
rtoes 11.8528
lfemur 11.5575 -0.777155 -15.1362
ltibia -1.90718
lfoot -14.563 18.8605
ltoes -4.78313
158
root -28.8967 17.2142 -0.501039 32.182 85.0283 29.9687
lowerback 5.34068 1.98533 -4.66767
upperback 0.511309 2.36568 -0.793827
thorax -2.62158 1.23301 1.61606
lowerneck -23.3808 2.66397 3.35938
upperneck 25.8018 3.10833 -1.18766
head 12.5287 1.62954 -0.456814
rclavicle -5.70264e-015 -1.59028e-015
rhumerus -35.0715 5.24344 -88.704
rradius 33.0767
rwrist 1.12611
rhand -11.9944 -30.2656
rfingers 7.12502
rthumb 14.0624 -59.7698
lclavicle -5.70264e-015 -1.59028e-015
lhumerus -29.9096 -11.9293 92.01
lradius 24.7447
lwrist -16.716
lhand -13.586 -27.2081
lfingers 7.12502
lthumb 12.5283 2.3963
rfemur 9.43294 -4.33538 11.2744
rtibia 1.52657
rfoot -16.1916 -9.52236
rtoes 11.9934
lfemur 11.5261 -0.643606 -15.1518
ltibia -1.90138
lfoot -14.4599 18.6913
ltoes -4.99966
159
root -28.8913 17.2136 -0.499693 34.7092 85.2205 32.5501
lowerback 5.32005 1.89589 -4.73261
upperback 0.550617 2.24555 -0.823228
thorax -2.563 1.17249 1.63331
lowerneck -23.3992 2.66564 3.41139
upperneck 25.8168 3.10469 -1.2335
head 12.5401 1.62675 -0.483383
rclavicle -1.4971e-014 6.65929e-015
rhumerus -35.0681 5.23848 -88.739
rradius 33.0741
rwrist 1.13421
rhand -12.0039 -30.284
rfingers 7.12502
rthumb 14.0533 -59.7889
lclavicle -1.4971e-014 6.65929e-015
lhumerus -29.8757 -11.8947 91.9834
lradius 24.7444
lwrist -16.7453
lhand -13.1916 -27.2305
lfingers 7.12502
lthumb 12.9085 2.35029
rfemur 9.667 -4.40434 11.1801
rtibia 1.31167
rfoot -16.164 -9.7936
rtoes 11.26
lfemur 11.5342 -0.710935 -15.2058
ltibia -1.88572
lfoot -14.2426 18.548
ltoes -5.8624
160
root -28.8928 17.214 -0.500352 34.3666 85.1644 32.2892
lowerback 5.42615 1.91462 -4.74933
upperback 0.557732 2.26371 -0.820398
thorax -2.617 1.18273 1.64068
lowerneck -23.3886 2.674 3.41408
upperneck 25.8403 3.11828 -1.23565
head 12.5479 1.63325 -0.482215
rclavicle 5.34234e-016 3.90612e-014
rhumerus -35.0884 5.28885 -88.76
rradius 33.0447
rwrist 1.1747
rhand -12.0872 -30.3179
rfingers 7.12502
rthumb 13.973 -59.8283
lclavicle 5.34234e-016 3.90612e-014
lhumerus -29.887 -11.8443 92.0081
lradius 24.7292
lwrist -16.856
lhand -13.1028 -27.1245
lfingers 7.12502
lthumb 12.9941 2.45085
rfemur 9.72054 -4.37626 11.1622
rtibia 1.22888
rfoot -16.0136 -9.81507
rtoes 10.686
lfemur 11.6516 -0.698966 -15.239
ltibia -1.93802
lfoot -14.1533 18.617
ltoes -6.27113
161
root -28.894 17.2111 -0.498865 34.1856 85.3011 32.0815
lowerback 5.40953 1.86801 -4.683
upperback 0.549783 2.20667 -0.783363
thorax -2.61118 1.15356 1.64692
lowerneck -23.3549 2.67563 3.3812
upperneck 25.8054 3.12189 -1.19882
head 12.526 1.63658 -0.462562
rclavicle 9.44227e-015 -1.98785e-015
rhumerus -35.105 5.33443 -88.7687
rradius 33.0288
rwrist 1.15464
rhand -12.0251 -30.4784
rfingers 7.12502
rthumb 14.0328 -59.9847
lclavicle 9.44227e-015 -1.98785e-015
lhumerus -29.9197 -11.7973 92.0279
lradius 24.7809
lwrist -16.9289
lhand -13.3907 -26.8726
lfingers 7.12502
lthumb 12.7165 2.72017
rfemur 9.73933 -4.24899 11.3482
rtibia 1.12684
rfoot -15.9317 -10.0553
rtoes 10.3635
lfemur 11.565 -0.738645 -15.106
ltibia -1.85539
lfoot -14.2175 18.525
ltoes -6.16009
